<mxfile host="65bd71144e">
    <diagram id="mOpuKxwpiM93LE0Hbw3T" name="Page-1">
        <mxGraphModel dx="406" dy="455" grid="1" gridSize="10" guides="1" tooltips="1" connect="1" arrows="1" fold="1" page="1" pageScale="1" pageWidth="850" pageHeight="1100" math="0" shadow="0">
            <root>
                <mxCell id="0"/>
                <mxCell id="1" parent="0"/>
                <mxCell id="5" value="" style="rounded=0;whiteSpace=wrap;html=1;strokeColor=light-dark(#000000,#00FF00);" vertex="1" parent="1">
                    <mxGeometry x="50" y="90" width="330" height="320" as="geometry"/>
                </mxCell>
                <mxCell id="6" value="&lt;b&gt;&lt;font style=&quot;color: light-dark(rgb(0, 0, 0), rgb(0, 255, 0));&quot;&gt;AMI&lt;/font&gt;&lt;/b&gt;" style="outlineConnect=0;dashed=0;verticalLabelPosition=bottom;verticalAlign=top;align=center;html=1;shape=mxgraph.aws3.ami;fillColor=#F58534;gradientColor=none;" vertex="1" parent="1">
                    <mxGeometry x="60" y="100" width="60" height="63" as="geometry"/>
                </mxCell>
                <mxCell id="7" value="" style="rounded=0;whiteSpace=wrap;html=1;strokeWidth=2;strokeColor=light-dark(#000000,#00FF00);" vertex="1" parent="1">
                    <mxGeometry x="130" y="160" width="230" height="230" as="geometry"/>
                </mxCell>
                <mxCell id="8" value="&lt;b&gt;&lt;font style=&quot;color: light-dark(rgb(0, 0, 0), rgb(0, 255, 0));&quot;&gt;EC2&lt;/font&gt;&lt;/b&gt;" style="outlineConnect=0;dashed=0;verticalLabelPosition=bottom;verticalAlign=top;align=center;html=1;shape=mxgraph.aws3.ec2;fillColor=#F58534;gradientColor=none;" vertex="1" parent="1">
                    <mxGeometry x="140" y="170" width="68" height="70" as="geometry"/>
                </mxCell>
                <mxCell id="9" value="" style="rounded=0;whiteSpace=wrap;html=1;strokeWidth=4;strokeColor=light-dark(#000000,#00FF00);" vertex="1" parent="1">
                    <mxGeometry x="220" y="250" width="130" height="130" as="geometry"/>
                </mxCell>
                <mxCell id="10" value="&lt;b&gt;&lt;font style=&quot;color: light-dark(rgb(0, 0, 0), rgb(0, 255, 0));&quot;&gt;Python&lt;/font&gt;&lt;/b&gt;" style="outlineConnect=0;dashed=0;verticalLabelPosition=bottom;verticalAlign=top;align=center;html=1;shape=mxgraph.aws3.android;fillColor=#FFD44F;gradientColor=none;" vertex="1" parent="1">
                    <mxGeometry x="243.25" y="270" width="73.5" height="84" as="geometry"/>
                </mxCell>
                <mxCell id="11" value="" style="image;aspect=fixed;html=1;points=[];align=center;fontSize=12;image=img/lib/azure2/other/Azure_Cloud_Shell.svg;" vertex="1" parent="1">
                    <mxGeometry x="205.25" y="236.81" width="38" height="26.38" as="geometry"/>
                </mxCell>
            </root>
        </mxGraphModel>
    </diagram>
</mxfile>